<svg xmlns="http://www.w3.org/2000/svg" viewBox="0 0 240 220" role="img" aria-labelledby="ips-home-title">
	<title id="ips-home-title">Ipswich Town home original abstract jersey</title>
	<defs><clipPath id="ips-home-shirt"><path d="M86 18 C96 24 106 27 120 27 C134 27 144 24 154 18 L188 30 Q194 32 198 38 L223 72 L190 99 L170 76 L170 207 H70 V76 L50 99 L17 72 L42 38 Q46 32 52 30 Z"/></clipPath><linearGradient id="ips-home-shade" x1="0" y1="0" x2="1" y2="0"><stop offset="0" stop-color="#000" stop-opacity="0.22"/><stop offset="0.22" stop-color="#fff" stop-opacity="0.12"/><stop offset="0.54" stop-color="#fff" stop-opacity="0.02"/><stop offset="1" stop-color="#000" stop-opacity="0.3"/></linearGradient><pattern id="ips-home-weave" width="8" height="8" patternUnits="userSpaceOnUse" patternTransform="rotate(32)"><path d="M0 1 H8" stroke="#fff" stroke-opacity="0.12" stroke-width="1"/></pattern><filter id="ips-home-shadow" x="-30%" y="-30%" width="160%" height="180%"><feDropShadow dx="0" dy="7" stdDeviation="5" flood-color="#061811" flood-opacity="0.38"/></filter></defs>
	<ellipse cx="120" cy="209" rx="75" ry="8" fill="#061811" opacity="0.24"/>
	<g filter="url(#ips-home-shadow)"><g clip-path="url(#ips-home-shirt)"><rect width="240" height="220" fill="#194b91"/><path d="M45 30 L115 30 L77 102 Z M117 30 H196 L159 104 Z M80 106 L121 35 L160 106 L121 178 Z M44 192 L79 111 L119 192 Z M124 192 L161 111 L199 192 Z" fill="#12366f" opacity="0.34"/><path d="M19 73 L50 98 M221 73 L190 98" stroke="#dd3443" stroke-width="5"/><rect width="240" height="220" fill="url(#ips-home-shade)"/><rect width="240" height="220" fill="url(#ips-home-weave)" opacity="0.42"/><path d="M69 69 Q86 83 88 207 H70 Z M171 69 Q154 83 152 207 H170 Z" fill="#061811" opacity="0.13"/><path d="M91 29 Q120 48 149 29" fill="none" stroke="#fff" stroke-opacity="0.22" stroke-width="4"/></g><path d="M86 18 C96 24 106 27 120 27 C134 27 144 24 154 18 L188 30 Q194 32 198 38 L223 72 L190 99 L170 76 L170 207 H70 V76 L50 99 L17 72 L42 38 Q46 32 52 30 Z" fill="none" stroke="#071713" stroke-width="5" stroke-linejoin="round"/><path d="M86 18 Q120 50 154 18 L141 13 Q120 31 99 13 Z" fill="#071713"/><path d="M96 16 Q120 37 144 16" fill="none" stroke="#f3f0e8" stroke-width="4" stroke-linecap="round"/><path d="M49 98 L70 75 M191 98 L170 75" fill="none" stroke="#071713" stroke-opacity="0.42" stroke-width="3"/></g>
</svg>
